<svg xmlns="http://www.w3.org/2000/svg" viewBox="0 0 120 100" fill="none">
  <rect width="120" height="100" rx="12" fill="#F0F9FF"/>
  <!-- 4-up Photo Sheet -->
  <rect x="26" y="22" width="68" height="56" rx="4" fill="#FFFFFF" stroke="#0284C7" stroke-width="1.5"/>
  <!-- Mini passport photo frames -->
  <rect x="30" y="26" width="28" height="22" rx="2" fill="#E0F2FE" stroke="#BAE6FD"/>
  <circle cx="44" cy="33" r="3.5" fill="#0369A1"/>
  <path d="M38 45C38 41 40 39 44 39C48 39 50 41 50 45" fill="#0369A1"/>

  <rect x="62" y="26" width="28" height="22" rx="2" fill="#E0F2FE" stroke="#BAE6FD"/>
  <circle cx="76" cy="33" r="3.5" fill="#0369A1"/>
  <path d="M70 45C70 41 72 39 76 39C80 39 82 41 82 45" fill="#0369A1"/>

  <rect x="30" y="52" width="28" height="22" rx="2" fill="#E0F2FE" stroke="#BAE6FD"/>
  <circle cx="44" cy="59" r="3.5" fill="#0369A1"/>
  <path d="M38 71C38 67 40 65 44 65C48 65 50 67 50 71" fill="#0369A1"/>

  <rect x="62" y="52" width="28" height="22" rx="2" fill="#E0F2FE" stroke="#BAE6FD"/>
  <circle cx="76" cy="59" r="3.5" fill="#0369A1"/>
  <path d="M70 71C70 67 72 65 76 65C80 65 82 67 82 71" fill="#0369A1"/>
</svg>